# xmcd
#
# Track frame offsets:
#  150
#  14644
#  35938
#  55842
#  73902
#  95205
#  112624
#  130584
#  144642
#  160699
#
# Disc length: 2346 seconds
#
# Revision: 0
# Processed by: cddbd v1.5.1PL2 Copyright (c) Steve Scherf et al.
# Submitted via: Collectorz.com Music Collector 6.9
#
DISCID=8d09280a
DTITLE=Tom Logan - What Was It You Wanted?
DYEAR=1900
DGENRE=
TTITLE0=I Ain't Gonna Stop
TTITLE1=Where Do We Go From Here
TTITLE2=Gonna Get A Life
TTITLE3=What Was It You Wanted
TTITLE4=Mortal Sin
TTITLE5=Please Help Me
TTITLE6=All I Have To Do
TTITLE7=In God We Trust
TTITLE8=Another Sunny Day In Paradise
TTITLE9=Buy Some Time
EXTD=
EXTT0=
EXTT1=
EXTT2=
EXTT3=
EXTT4=
EXTT5=
EXTT6=
EXTT7=
EXTT8=
EXTT9=
PLAYORDER=
